<?xml version="1.0" encoding="UTF-8" ?>
<!DOCTYPE svg PUBLIC "-//W3C//DTD SVG 1.1//EN" "http://www.w3.org/Graphics/SVG/1.1/DTD/svg11.dtd">
<svg width="50pt" height="50pt" viewBox="0 0 50 50" version="1.1" xmlns="http://www.w3.org/2000/svg">
<path fill="#5367ff" stroke="#5367ff" stroke-width="0.09375" opacity="1.00" d=" M 8.3 7.4 C 12.5 3.3 18.2 1.2 23.9 0.7 C 32.7 0.5 41.4 5.3 45.8 12.9 C 40.0 18.2 34.5 23.6 29.0 29.0 C 24.0 27.4 19.1 25.4 14.2 23.6 C 10.0 26.4 5.7 29.1 1.5 31.8 C -1.2 23.2 1.8 13.4 8.3 7.4 Z" />
<path fill="#00ffc4" stroke="#00ffc4" stroke-width="0.09375" opacity="1.00" d=" M 45.8 12.9 C 46.5 14.4 47.1 15.9 47.8 17.4 C 41.2 22.0 36.7 29.2 29.7 33.4 C 24.7 32.8 20.4 29.3 15.3 28.7 C 11.0 30.8 7.4 34.0 2.9 35.6 C 2.4 34.4 1.9 33.1 1.5 31.8 C 5.7 29.1 10.0 26.4 14.2 23.6 C 19.1 25.4 24.0 27.4 29.0 29.0 C 34.5 23.6 40.0 18.2 45.8 12.9 Z" />
<path fill="#00ebb4" stroke="#00ebb4" stroke-width="0.09375" opacity="1.00" d=" M 29.7 33.4 C 36.7 29.2 41.2 22.0 47.8 17.4 C 48.2 19.1 48.5 20.8 48.9 22.6 C 43.0 26.7 37.9 31.9 32.8 36.9 C 31.9 37.6 31.0 38.6 29.8 38.9 C 24.7 38.6 20.4 35.0 15.3 34.6 C 11.8 35.9 8.9 38.4 5.8 40.3 C 4.8 38.8 3.8 37.2 2.9 35.6 C 7.4 34.0 11.0 30.8 15.3 28.7 C 20.4 29.3 24.7 32.8 29.7 33.4 Z" />
<path fill="#00d8a5" stroke="#00d8a5" stroke-width="0.09375" opacity="1.00" d=" M 32.8 36.9 C 37.9 31.9 43.0 26.7 48.9 22.6 C 49.0 24.6 48.9 26.6 48.8 28.6 C 43.5 32.3 38.7 36.6 34.3 41.4 C 32.9 42.7 31.6 44.3 29.8 44.9 C 24.9 44.5 20.8 41.3 16.0 40.5 C 13.4 41.0 11.2 42.4 8.9 43.6 C 7.9 42.5 6.8 41.4 5.8 40.3 C 8.9 38.4 11.8 35.9 15.3 34.6 C 20.4 35.0 24.7 38.6 29.8 38.9 C 31.0 38.6 31.9 37.6 32.8 36.9 Z" />
<path fill="#00c798" stroke="#00c798" stroke-width="0.09375" opacity="1.00" d=" M 34.3 41.4 C 38.7 36.6 43.5 32.3 48.8 28.6 C 47.3 40.2 36.6 49.5 24.9 49.5 C 19.1 49.5 13.4 47.2 8.9 43.6 C 11.2 42.4 13.4 41.0 16.0 40.5 C 20.8 41.3 24.9 44.5 29.8 44.9 C 31.6 44.3 32.9 42.7 34.3 41.4 Z" />
</svg>
